<svg xmlns="http://www.w3.org/2000/svg" viewBox="0 0 537.31 268.26"><defs><style>.cls-1{fill:#202a38;}</style></defs><g id="Layer_2" data-name="Layer 2"><g id="Layer_1-2" data-name="Layer 1"><path class="cls-1" d="M404,147a69.89,69.89,0,0,1-2.83,9.67c-4.68,12.6-13.05,24.09-24.5,33.72a108.63,108.63,0,0,1-17.16,11.8c-33,18.39-76.37,22.39-110.55,10.19-21.62-7.72-37.68-21-49.17-34.06-1.19,1.56-3.09,4-5.5,6.94-17.49,21.29-37.7,40.94-61.46,55.13-22.09,13.18-51.25,24.22-77.19,18.15C30.23,252.59,10.38,232.74,3,207.93c-10.25-34.68,8.37-62.9,12.22-68.21l32.81,3.78c-2.52,4.47-15.56,28.56-5.48,52.73,2.56,6.14,9,21.62,23.55,23.78,36.58,5.42,37.78-49.93,40.08-72.78a386.47,386.47,0,0,0,1.11-62.61,391.43,391.43,0,0,0-6.49-50.43L137.93,12a422.17,422.17,0,0,1,10.56,69.93,421.63,421.63,0,0,1-1.23,69.43c-1,9.9-2.36,19.83-4.06,29.73-.41,2.37,6-2.34,7.82-4,18.93-17.21,54-52.6,59-57.6q5.9,9.83,11.78,19.67c7.5,11.67,20.71,27.11,41,34.36,23.12,8.24,53.9,5.29,76.59-7.36,13.4-7.48,22-17.35,24.24-27.79,4.31-20.23-10.57-43.48-28.68-49.67-23.11-7.91-56.91,10-68.27,47.79L235.49,103.9c1.76-5.12,13.88-38.47,49.95-53.18,4.77-1.94,33.53-13,64.94-.27C392.57,67.49,411,113.82,404,147Z"/><path class="cls-1" d="M537.31,124.65A118,118,0,0,1,518.69,177S502,200.46,475.85,209.59a99.6,99.6,0,0,1-13.63,3.55,85.54,85.54,0,0,1-15,1.31c-28.09-.08-49.32-14.24-59.62-22.43a64.65,64.65,0,0,0,22.83-35.37c13.34,14.58,33.7,20.33,51.83,14,17.43-6.08,29.9-22.57,31.79-42Z"/><polygon class="cls-1" points="185.33 95.88 156.81 59.98 169.86 49.14 183.14 65.85 194.64 45.96 221.81 45.96 228.51 6.62 245.08 9.57 235.95 63.16 204.23 63.16 185.33 95.88"/><circle class="cls-1" cx="232.44" cy="249.98" r="18.28"/><circle class="cls-1" cx="175.12" cy="249.98" r="18.28"/><circle class="cls-1" cx="515.66" cy="21.26" r="21.26"/><circle class="cls-1" cx="454.47" cy="21.26" r="21.26"/><circle class="cls-1" cx="380.07" cy="21.26" r="21.26"/><path class="cls-1" d="M38.71,76.79A16.42,16.42,0,0,1,44.6,99.08a16.25,16.25,0,0,1-5.92,6,15.78,15.78,0,0,1-8.28,2.24,15.81,15.81,0,0,1-8.2-2.21,16.41,16.41,0,0,1-5.85-22.26,16.38,16.38,0,0,1,5.9-6A15.72,15.72,0,0,1,30.5,74.6,16,16,0,0,1,38.71,76.79ZM36.93,102a12.73,12.73,0,0,0,4.66-4.67A12.69,12.69,0,0,0,37,79.92a12.7,12.7,0,0,0-6.5-1.71A12.53,12.53,0,0,0,24,80a12.8,12.8,0,0,0-4.64,4.66,12.89,12.89,0,0,0,0,12.78,13,13,0,0,0,17.6,4.6Zm-.32-10.85a4.88,4.88,0,0,1-2.21,1.94l3.42,5.2h-4l-2.5-4.52H27.76v4.52H24.29V82.64h6.64a7.17,7.17,0,0,1,4.77,1.42,4.92,4.92,0,0,1,1.68,4A5.86,5.86,0,0,1,36.61,91.14ZM27.76,91h3.17a3.32,3.32,0,0,0,2.31-.73,2.59,2.59,0,0,0,.82-2.06,2.54,2.54,0,0,0-.82-2.05,3.46,3.46,0,0,0-2.31-.7H27.76Z"/></g></g></svg>